<?xml version="1.0" encoding="UTF-8" standalone="no"?>
<!-- Created with Inkscape (http://www.inkscape.org/) -->

<svg
   width="100"
   height="100"
   viewBox="0 0 100 100"
   version="1.1"
   id="svg1"
   xml:space="preserve"
   xmlns="http://www.w3.org/2000/svg"
   xmlns:svg="http://www.w3.org/2000/svg"
   xmlns:rdf="http://www.w3.org/1999/02/22-rdf-syntax-ns#"
   xmlns:cc="http://creativecommons.org/ns#"
   xmlns:dc="http://purl.org/dc/elements/1.1/"><title
     id="title1">YAKA Games</title><defs
     id="defs1" /><g
     id="layer1"><g
       id="Icon"
       transform="matrix(0.9,0,0,0.9,5,5.396)"><g
         id="Robot"
         transform="translate(13,25.56)"><path
           id="Path_2"
           data-name="Path 2"
           d="M 44.258,34 A 9.167,9.167 0 1 0 53.516,43.167 9.222,9.222 0 0 0 44.258,34 Z m 0,12.222 a 3.056,3.056 0 1 1 3.086,-3.056 3.074,3.074 0 0 1 -3.086,3.056 z"
           transform="translate(6.662,-18.728)" /><path
           id="Path_3"
           data-name="Path 3"
           d="M 26.258,34 A 9.167,9.167 0 1 0 35.516,43.167 9.222,9.222 0 0 0 26.258,34 Z m 0,12.222 a 3.056,3.056 0 1 1 3.086,-3.056 3.074,3.074 0 0 1 -3.086,3.056 z"
           transform="translate(-3.113,-18.728)" /><path
           id="Path_4"
           data-name="Path 4"
           d="M 74.818,29.111 57.829,25.384 a 60.026,60.026 0 0 0 -25.591,0 l -17,3.729 A 9.146,9.146 0 0 0 8,38.069 V 59.9 a 9.15,9.15 0 0 0 7.248,8.957 l 17.016,3.733 1.109,0.231 a 3.009,3.009 0 0 0 0.626,0.066 3.1,3.1 0 0 0 2.048,-0.77 l 6.666,-5.851 c 0.046,-0.04 0.091,-0.082 0.134,-0.125 a 3.116,3.116 0 0 1 4.37,0 c 0.043,0.041 0.089,0.084 0.134,0.124 l 6.666,5.851 a 3.108,3.108 0 0 0 2.676,0.706 L 74.824,68.854 A 9.145,9.145 0 0 0 82.066,59.9 V 38.069 A 9.148,9.148 0 0 0 74.818,29.112 Z M 75.894,59.9 a 3.052,3.052 0 0 1 -2.412,2.99 L 56.945,66.519 51.51,61.748 a 9.344,9.344 0 0 0 -12.954,0 L 33.121,66.519 16.592,62.893 A 3.057,3.057 0 0 1 14.172,59.9 V 38.069 a 3.056,3.056 0 0 1 2.41,-2.991 l 16.99,-3.728 a 53.752,53.752 0 0 1 22.92,0 l 16.981,3.726 a 3.057,3.057 0 0 1 2.419,2.993 z"
           transform="translate(-8,-24.004)" /></g><g
         id="Ellipse_1"
         data-name="Ellipse 1"
         transform="translate(0,-0.44)"
         fill="none"
         stroke="#000000"
         stroke-width="5"
         style="display:inline"><circle
           cx="50"
           cy="50"
           r="47.5"
           fill="none"
           id="circle2" /></g></g></g><metadata
     id="metadata1"><rdf:RDF><cc:Work
         rdf:about=""><dc:title>YAKA Games</dc:title><dc:creator><cc:Agent><dc:title>Laurent LEFEVRE</dc:title></cc:Agent></dc:creator><dc:publisher><cc:Agent><dc:title>LYDDE Group</dc:title></cc:Agent></dc:publisher><dc:identifier>yaka-icon</dc:identifier></cc:Work></rdf:RDF></metadata></svg>
